Отчёт EAC об извлечении, выполненном 15. января 2010, 16:06 для диска:
Girls Against Boys / Cruise Yourself

Дисковод: ASUS    DRW-2014L1T   Adapter: 2  ID: 0
Режим чтения: Достоверный (C2: нет, Точный поток: да, Отключение кэша: да)
Коррекция смещения при чтении: 6
Способность читать области Lead-in и Lead-out : Нет

Выходной формат: C:\Program Files\FLAC\flac.exe   (Пользовательский кодировщик)
                     128 kBit/s
                     Дополнительные параметры: -8 -V -T "ARTIST=%a" -T "TITLE=%t" -T "ALBUM=%g" -T "DATE=%y" -T "TRACKNUMBER=%n" -T "GENRE=%m" -T "COMMENT=EAC FLAC -8" %s

Другие параметры: 
    Заполнение пропущенных сэмплов тишиной : Да
    Удаление блоков с тишиной в начале и конце : Нет
    Встроенный Win32-интерфейс для Win NT/2000


Трек  1
     Имя файла N:\MUSICS\Girls Against Boys\1994 - Cruise Yourself\01 - Tucked-in.wav

     Пиковый уровень 75.5 %
     Качество трека 100.0 %
     CRC теста 40CDD620
     CRC копии 40CDD620
     Копирование... OK

Трек  2
     Имя файла N:\MUSICS\Girls Against Boys\1994 - Cruise Yourself\02 - Cruise Your New Baby Fly Self.wav

     Пиковый уровень 74.0 %
     Качество трека 99.9 %
     CRC теста B1797DB5
     CRC копии B1797DB5
     Копирование... OK

Трек  3
     Имя файла N:\MUSICS\Girls Against Boys\1994 - Cruise Yourself\03 - Kill the Sexplayer.wav

     Пиковый уровень 81.2 %
     Качество трека 100.0 %
     CRC теста 23C616A2
     CRC копии 23C616A2
     Копирование... OK

Трек  4
     Имя файла N:\MUSICS\Girls Against Boys\1994 - Cruise Yourself\04 - (I) Don't Got a Place.wav

     Пиковый уровень 79.6 %
     Качество трека 100.0 %
     CRC теста 5A68EDB1
     CRC копии 5A68EDB1
     Копирование... OK

Трек  5
     Имя файла N:\MUSICS\Girls Against Boys\1994 - Cruise Yourself\05 - Psychic Know-How.wav

     Пиковый уровень 76.5 %
     Качество трека 100.0 %
     CRC теста 68968C6F
     CRC копии 68968C6F
     Копирование... OK

Трек  6
     Имя файла N:\MUSICS\Girls Against Boys\1994 - Cruise Yourself\06 - Explicitly Yours.wav

     Пиковый уровень 81.4 %
     Качество трека 99.9 %
     CRC теста F9E24154
     CRC копии F9E24154
     Копирование... OK

Трек  7
     Имя файла N:\MUSICS\Girls Against Boys\1994 - Cruise Yourself\07 - From Now On.wav

     Пиковый уровень 76.9 %
     Качество трека 100.0 %
     CRC теста 0381B4CF
     CRC копии 0381B4CF
     Копирование... OK

Трек  8
     Имя файла N:\MUSICS\Girls Against Boys\1994 - Cruise Yourself\08 - Raindrop.wav

     Пиковый уровень 73.8 %
     Качество трека 100.0 %
     CRC теста 1127D567
     CRC копии 1127D567
     Копирование... OK

Трек  9
     Имя файла N:\MUSICS\Girls Against Boys\1994 - Cruise Yourself\09 - The Royal Lowdown.wav

     Пиковый уровень 77.2 %
     Качество трека 100.0 %
     CRC теста 45016968
     CRC копии 45016968
     Копирование... OK

Трек 10
     Имя файла N:\MUSICS\Girls Against Boys\1994 - Cruise Yourself\10 - My Martini.wav

     Пиковый уровень 81.5 %
     Качество трека 100.0 %
     CRC теста 1A604F9F
     CRC копии 1A604F9F
     Копирование... OK

Трек 11
     Имя файла N:\MUSICS\Girls Against Boys\1994 - Cruise Yourself\11 - Glazed-Eye.wav

     Пиковый уровень 75.3 %
     Качество трека 100.0 %
     CRC теста E57C2ABA
     CRC копии E57C2ABA
     Копирование... OK

Ошибок не произошло


Конец отчёта
